<?xml version="1.0" ?>
<!DOCTYPE svg  PUBLIC '-//W3C//DTD SVG 1.1//EN'  'http://www.w3.org/Graphics/SVG/1.1/DTD/svg11.dtd'>
<!-- Uploaded to: SVG Repo, www.svgrepo.com, Generator: SVG Repo Mixer Tools -->
<svg fill="#000000" width="800px" height="800px" viewBox="0 0 2.33333 2.33333" style="shape-rendering:geometricPrecision; text-rendering:geometricPrecision; image-rendering:optimizeQuality; fill-rule:evenodd; clip-rule:evenodd" xml:space="preserve" xmlns="http://www.w3.org/2000/svg" xmlns:xlink="http://www.w3.org/1999/xlink">
<defs>
<style type="text/css">
   <![CDATA[
    .fil0 {fill:black}
   ]]>
  </style>
</defs>
<g id="Layer_x0020_1">
<path class="fil0" d="M0.676354 1.65472c-0.134063,0 -0.244024,-0.108457 -0.244024,-0.24252 0,-0.134063 0.109961,-0.244024 0.244024,-0.244024 0.134063,0 0.24252,0.109961 0.24252,0.244024 0,0.134063 -0.108457,0.24252 -0.24252,0.24252zm0 -0.442858c-0.109961,0 -0.200343,0.090378 -0.200343,0.200339 0,0.109961 0.0903819,0.198835 0.200343,0.198835 0.109961,0 0.198835,-0.088874 0.198835,-0.198835 0.00150394,-0.111469 -0.088874,-0.200339 -0.198835,-0.200339z"/>
<path class="fil0" d="M1.0198 2.07046c-0.0120512,0 -0.0210906,-0.00903937 -0.0210906,-0.0210906 0,-0.176236 -0.144602,-0.320846 -0.320846,-0.320846 -0.17624,0 -0.32235,0.14461 -0.32235,0.320846 0,0.0279567 -0.0421772,0.0279567 -0.0421772,0 0,-0.200339 0.164189,-0.364531 0.364531,-0.364531 0.200339,0 0.364531,0.162685 0.364531,0.364531 -0.00150787,0.0120512 -0.0105472,0.0210906 -0.0225984,0.0210906z"/>
<path class="fil0" d="M1.0198 2.07046l-0.685378 0c-0.0279567,0 -0.0279567,-0.0421772 0,-0.0421772l0.685378 0c0.0279567,0 0.0279567,0.0421772 0,0.0421772z"/>
<path class="fil0" d="M1.65396 1.65472c-0.134063,0 -0.244024,-0.108457 -0.244024,-0.24252 0,-0.134063 0.109961,-0.244024 0.244024,-0.244024 0.134063,0 0.24252,0.109961 0.24252,0.244024 0,0.134063 -0.108457,0.24252 -0.24252,0.24252zm0 -0.442858c-0.109961,0 -0.200339,0.090378 -0.200339,0.200339 0,0.109961 0.090378,0.198835 0.200339,0.198835 0.109961,0 0.198835,-0.088874 0.198835,-0.198835 0,-0.111469 -0.088874,-0.200339 -0.198835,-0.200339z"/>
<path class="fil0" d="M1.99589 2.07046c-0.0120472,0 -0.0210866,-0.00903937 -0.0210866,-0.0210906 0,-0.176236 -0.144606,-0.320846 -0.320846,-0.320846 -0.17624,0 -0.320846,0.144606 -0.320846,0.320846 0,0.0279567 -0.0421772,0.0279567 -0.0421772,0 0,-0.200339 0.162685,-0.364531 0.364531,-0.364531 0.20185,0 0.364531,0.162685 0.364531,0.364531 -0.00150787,0.0120512 -0.0120551,0.0210906 -0.0241063,0.0210906z"/>
<path class="fil0" d="M1.99589 2.07046l-0.685374 0c-0.0279567,0 -0.0279567,-0.0421772 0,-0.0421772l0.685374 0c0.0279567,0 0.0279567,0.0421772 0,0.0421772z"/>
<path class="fil0" d="M0.798366 1.12148c-0.00877559,0 -0.0205906,-0.0081063 -0.0210866,-0.0210866l-0.0180787 -0.236492 -0.161177 0c-0.0256063,0 -0.0482008,-0.0210906 -0.0482008,-0.0466969l0 -0.50763c0,-0.0256063 0.0210866,-0.0466969 0.0482008,-0.0466969l1.07401 -3.93701e-006c0.0256102,0 0.0466969,0.0210906 0.0466969,0.0466969l0 0.509138c0,0.0256063 -0.0210866,0.0466929 -0.0466969,0.0466929l-0.161173 3.93701e-006 -0.0180787 0.234988c-0.000732283,0.0191378 -0.0257598,0.0290394 -0.0376575,0.0120512l-0.200343 -0.247039 -0.239504 0 -0.198835 0.247035c-0.00451969,0.00602756 -0.0105433,0.00903937 -0.0180748,0.00903937zm-0.200343 -0.814921c-0.00150394,0 -0.00451969,0.00150787 -0.00451969,0.00301181l0 0.509138c0,0.00150394 0.00150787,0.00301181 0.00451969,0.00301181l0.18076 0c0.0120512,0 0.0210866,0.00903937 0.0210866,0.0195827l0.015063 0.201846 0.173228 -0.213898c0.00451969,-0.00451969 0.0105433,-0.0075315 0.0165709,-0.0075315l0.260594 0c0.00602756,0 0.0120512,0.00301181 0.0165709,0.0075315l0.17172 0.213898 0.015063 -0.201846c0.00150787,-0.0120512 0.0105472,-0.0195827 0.0210866,-0.0195827l0.182264 0c0.00150787,0 0.00301181,-0.00150394 0.00301181,-0.00300787l0 -0.509138c0,-0.00150787 -0.00150394,-0.00301181 -0.00301181,-0.00301181l-1.07401 -3.93701e-006z"/>
<path class="fil0" d="M1.55002 0.449657l-0.828476 0c-0.0279567,0 -0.0279567,-0.0421772 0,-0.0421772l0.828476 0c0.0279567,0 0.0279567,0.0421772 0,0.0421772z"/>
<path class="fil0" d="M1.55002 0.585224l-0.828476 0c-0.0279567,0 -0.0279567,-0.0421732 0,-0.0421732l0.828476 0c0.0279567,0 0.0279567,0.0421732 0,0.0421732z"/>
<path class="fil0" d="M1.55002 0.720795l-0.828476 0c-0.0279567,0 -0.0279567,-0.0421732 0,-0.0421732l0.828476 -3.93701e-006c0.0279606,0 0.0279567,0.0421772 0,0.0421772z"/>
</g>
</svg>